<mxfile host="app.diagrams.net" agent="Mozilla/5.0 (Windows NT 10.0; Win64; x64) AppleWebKit/537.36 (KHTML, like Gecko) Chrome/127.0.0.0 Safari/537.36" version="24.7.7">
  <diagram name="Page-1" id="90a13364-a465-7bf4-72fc-28e22215d7a0">
    <mxGraphModel dx="1062" dy="547" grid="1" gridSize="10" guides="1" tooltips="1" connect="1" arrows="1" fold="1" page="1" pageScale="1.5" pageWidth="1169" pageHeight="826" background="none" math="0" shadow="0">
      <root>
        <mxCell id="0" style=";html=1;" />
        <mxCell id="1" style=";html=1;" parent="0" />
        <mxCell id="j-6bAbtd_mNCW3oIfH7T-3" value="AIRBORNE" style="swimlane;startSize=20;horizontal=1;containerType=tree;newEdgeStyle={&quot;edgeStyle&quot;:&quot;elbowEdgeStyle&quot;,&quot;startArrow&quot;:&quot;none&quot;,&quot;endArrow&quot;:&quot;none&quot;};spacing=9;labelBackgroundColor=none;fontStyle=1" vertex="1" parent="1">
          <mxGeometry x="50" y="90" width="550" height="290" as="geometry">
            <mxRectangle x="80" y="40" width="100" height="30" as="alternateBounds" />
          </mxGeometry>
        </mxCell>
        <mxCell id="j-6bAbtd_mNCW3oIfH7T-64" style="edgeStyle=orthogonalEdgeStyle;rounded=0;orthogonalLoop=1;jettySize=auto;html=1;exitX=0.5;exitY=1;exitDx=0;exitDy=0;entryX=0.75;entryY=1;entryDx=0;entryDy=0;" edge="1" parent="j-6bAbtd_mNCW3oIfH7T-3" source="j-6bAbtd_mNCW3oIfH7T-9" target="j-6bAbtd_mNCW3oIfH7T-13">
          <mxGeometry relative="1" as="geometry">
            <Array as="points">
              <mxPoint x="440" y="110" />
              <mxPoint x="355" y="110" />
            </Array>
          </mxGeometry>
        </mxCell>
        <mxCell id="j-6bAbtd_mNCW3oIfH7T-75" style="edgeStyle=orthogonalEdgeStyle;rounded=0;orthogonalLoop=1;jettySize=auto;html=1;exitX=1;exitY=0.75;exitDx=0;exitDy=0;entryX=1;entryY=0.25;entryDx=0;entryDy=0;" edge="1" parent="j-6bAbtd_mNCW3oIfH7T-3" source="j-6bAbtd_mNCW3oIfH7T-9" target="j-6bAbtd_mNCW3oIfH7T-16">
          <mxGeometry relative="1" as="geometry" />
        </mxCell>
        <mxCell id="j-6bAbtd_mNCW3oIfH7T-76" style="edgeStyle=orthogonalEdgeStyle;rounded=0;orthogonalLoop=1;jettySize=auto;html=1;exitX=1;exitY=0.25;exitDx=0;exitDy=0;entryX=1;entryY=0.75;entryDx=0;entryDy=0;" edge="1" parent="j-6bAbtd_mNCW3oIfH7T-3" source="j-6bAbtd_mNCW3oIfH7T-9" target="j-6bAbtd_mNCW3oIfH7T-16">
          <mxGeometry relative="1" as="geometry">
            <Array as="points">
              <mxPoint x="520" y="58" />
              <mxPoint x="520" y="153" />
            </Array>
          </mxGeometry>
        </mxCell>
        <mxCell id="j-6bAbtd_mNCW3oIfH7T-9" value="FCU" style="whiteSpace=wrap;html=1;spacing=9;labelBackgroundColor=none;fontStyle=1" vertex="1" parent="j-6bAbtd_mNCW3oIfH7T-3">
          <mxGeometry x="390" y="50" width="100" height="30" as="geometry" />
        </mxCell>
        <mxCell id="j-6bAbtd_mNCW3oIfH7T-57" style="edgeStyle=orthogonalEdgeStyle;rounded=0;orthogonalLoop=1;jettySize=auto;html=1;exitX=0.5;exitY=1;exitDx=0;exitDy=0;entryX=0.5;entryY=0;entryDx=0;entryDy=0;" edge="1" parent="j-6bAbtd_mNCW3oIfH7T-3" source="j-6bAbtd_mNCW3oIfH7T-11" target="j-6bAbtd_mNCW3oIfH7T-17">
          <mxGeometry relative="1" as="geometry">
            <Array as="points">
              <mxPoint x="220" y="100" />
              <mxPoint x="275" y="100" />
            </Array>
          </mxGeometry>
        </mxCell>
        <mxCell id="j-6bAbtd_mNCW3oIfH7T-11" value="SIYI A2" style="whiteSpace=wrap;html=1;spacing=9;labelBackgroundColor=none;fontStyle=1" vertex="1" parent="j-6bAbtd_mNCW3oIfH7T-3">
          <mxGeometry x="170" y="50" width="100" height="30" as="geometry" />
        </mxCell>
        <mxCell id="j-6bAbtd_mNCW3oIfH7T-55" style="edgeStyle=elbowEdgeStyle;rounded=0;orthogonalLoop=1;jettySize=auto;html=1;entryX=0.5;entryY=0;entryDx=0;entryDy=0;elbow=vertical;" edge="1" parent="j-6bAbtd_mNCW3oIfH7T-3" source="j-6bAbtd_mNCW3oIfH7T-12" target="j-6bAbtd_mNCW3oIfH7T-17">
          <mxGeometry relative="1" as="geometry">
            <Array as="points">
              <mxPoint x="190" y="100" />
            </Array>
          </mxGeometry>
        </mxCell>
        <mxCell id="j-6bAbtd_mNCW3oIfH7T-12" value="SIYI R1M" style="whiteSpace=wrap;html=1;spacing=9;labelBackgroundColor=none;fontStyle=1" vertex="1" parent="j-6bAbtd_mNCW3oIfH7T-3">
          <mxGeometry x="60" y="50" width="100" height="30" as="geometry" />
        </mxCell>
        <mxCell id="j-6bAbtd_mNCW3oIfH7T-58" style="edgeStyle=orthogonalEdgeStyle;rounded=0;orthogonalLoop=1;jettySize=auto;html=1;exitX=0.5;exitY=1;exitDx=0;exitDy=0;entryX=0.5;entryY=0;entryDx=0;entryDy=0;" edge="1" parent="j-6bAbtd_mNCW3oIfH7T-3" source="j-6bAbtd_mNCW3oIfH7T-13" target="j-6bAbtd_mNCW3oIfH7T-17">
          <mxGeometry relative="1" as="geometry">
            <Array as="points">
              <mxPoint x="330" y="100" />
              <mxPoint x="275" y="100" />
            </Array>
          </mxGeometry>
        </mxCell>
        <mxCell id="j-6bAbtd_mNCW3oIfH7T-13" value="RASPBERRY PI 5" style="whiteSpace=wrap;html=1;spacing=9;labelBackgroundColor=none;fontStyle=1" vertex="1" parent="j-6bAbtd_mNCW3oIfH7T-3">
          <mxGeometry x="280" y="50" width="100" height="30" as="geometry" />
        </mxCell>
        <mxCell id="j-6bAbtd_mNCW3oIfH7T-51" style="edgeStyle=orthogonalEdgeStyle;rounded=0;orthogonalLoop=1;jettySize=auto;html=1;entryX=0.5;entryY=1;entryDx=0;entryDy=0;" edge="1" parent="j-6bAbtd_mNCW3oIfH7T-3" source="j-6bAbtd_mNCW3oIfH7T-14" target="j-6bAbtd_mNCW3oIfH7T-15">
          <mxGeometry relative="1" as="geometry" />
        </mxCell>
        <mxCell id="j-6bAbtd_mNCW3oIfH7T-14" value="R&amp;amp;S DEVICE" style="whiteSpace=wrap;html=1;spacing=9;labelBackgroundColor=none;fontStyle=1" vertex="1" parent="j-6bAbtd_mNCW3oIfH7T-3">
          <mxGeometry x="60" y="190" width="100" height="30" as="geometry" />
        </mxCell>
        <mxCell id="j-6bAbtd_mNCW3oIfH7T-52" style="edgeStyle=orthogonalEdgeStyle;rounded=0;orthogonalLoop=1;jettySize=auto;html=1;entryX=0.5;entryY=0;entryDx=0;entryDy=0;" edge="1" parent="j-6bAbtd_mNCW3oIfH7T-3" source="j-6bAbtd_mNCW3oIfH7T-15" target="j-6bAbtd_mNCW3oIfH7T-17">
          <mxGeometry relative="1" as="geometry" />
        </mxCell>
        <mxCell id="j-6bAbtd_mNCW3oIfH7T-15" value="DTC AIR" style="whiteSpace=wrap;html=1;spacing=9;labelBackgroundColor=none;fontStyle=1" vertex="1" parent="j-6bAbtd_mNCW3oIfH7T-3">
          <mxGeometry x="60" y="130" width="100" height="30" as="geometry" />
        </mxCell>
        <mxCell id="j-6bAbtd_mNCW3oIfH7T-54" style="edgeStyle=orthogonalEdgeStyle;rounded=0;orthogonalLoop=1;jettySize=auto;html=1;entryX=0.5;entryY=0;entryDx=0;entryDy=0;" edge="1" parent="j-6bAbtd_mNCW3oIfH7T-3" source="j-6bAbtd_mNCW3oIfH7T-16" target="j-6bAbtd_mNCW3oIfH7T-17">
          <mxGeometry relative="1" as="geometry" />
        </mxCell>
        <mxCell id="j-6bAbtd_mNCW3oIfH7T-16" value="HM30 AIR" style="whiteSpace=wrap;html=1;spacing=9;labelBackgroundColor=none;fontStyle=1" vertex="1" parent="j-6bAbtd_mNCW3oIfH7T-3">
          <mxGeometry x="390" y="130" width="100" height="30" as="geometry" />
        </mxCell>
        <mxCell id="j-6bAbtd_mNCW3oIfH7T-17" value="SWITCH AIRBORNE" style="whiteSpace=wrap;html=1;spacing=9;labelBackgroundColor=none;fontStyle=1" vertex="1" parent="j-6bAbtd_mNCW3oIfH7T-3">
          <mxGeometry x="225" y="190" width="100" height="30" as="geometry" />
        </mxCell>
        <mxCell id="j-6bAbtd_mNCW3oIfH7T-18" value="TETHERED UNIT (AIR)" style="whiteSpace=wrap;html=1;spacing=9;labelBackgroundColor=none;fontStyle=1" vertex="1" parent="j-6bAbtd_mNCW3oIfH7T-3">
          <mxGeometry x="390" y="190" width="100" height="30" as="geometry" />
        </mxCell>
        <mxCell id="j-6bAbtd_mNCW3oIfH7T-63" style="edgeStyle=orthogonalEdgeStyle;rounded=0;orthogonalLoop=1;jettySize=auto;html=1;exitX=0.25;exitY=1;exitDx=0;exitDy=0;entryX=0.904;entryY=1.007;entryDx=0;entryDy=0;entryPerimeter=0;" edge="1" parent="j-6bAbtd_mNCW3oIfH7T-3" source="j-6bAbtd_mNCW3oIfH7T-9" target="j-6bAbtd_mNCW3oIfH7T-13">
          <mxGeometry relative="1" as="geometry">
            <Array as="points">
              <mxPoint x="415" y="100" />
              <mxPoint x="370" y="100" />
            </Array>
          </mxGeometry>
        </mxCell>
        <mxCell id="j-6bAbtd_mNCW3oIfH7T-19" value="GROUND CONTROL STATION" style="swimlane;startSize=20;horizontal=1;containerType=tree;newEdgeStyle={&quot;edgeStyle&quot;:&quot;elbowEdgeStyle&quot;,&quot;startArrow&quot;:&quot;none&quot;,&quot;endArrow&quot;:&quot;none&quot;};spacing=9;labelBackgroundColor=none;fontStyle=1" vertex="1" parent="1">
          <mxGeometry x="50" y="620" width="550" height="290" as="geometry">
            <mxRectangle x="80" y="40" width="100" height="30" as="alternateBounds" />
          </mxGeometry>
        </mxCell>
        <mxCell id="j-6bAbtd_mNCW3oIfH7T-20" value="SWITCH GROUND" style="whiteSpace=wrap;html=1;spacing=9;labelBackgroundColor=none;fontStyle=1" vertex="1" parent="j-6bAbtd_mNCW3oIfH7T-19">
          <mxGeometry x="225" y="50" width="100" height="30" as="geometry" />
        </mxCell>
        <mxCell id="j-6bAbtd_mNCW3oIfH7T-85" style="edgeStyle=orthogonalEdgeStyle;rounded=0;orthogonalLoop=1;jettySize=auto;html=1;exitX=0.5;exitY=0;exitDx=0;exitDy=0;entryX=0.5;entryY=1;entryDx=0;entryDy=0;" edge="1" parent="j-6bAbtd_mNCW3oIfH7T-19" source="j-6bAbtd_mNCW3oIfH7T-21" target="j-6bAbtd_mNCW3oIfH7T-22">
          <mxGeometry relative="1" as="geometry" />
        </mxCell>
        <mxCell id="j-6bAbtd_mNCW3oIfH7T-21" value="F9P MODULE" style="whiteSpace=wrap;html=1;spacing=9;labelBackgroundColor=none;fontStyle=1" vertex="1" parent="j-6bAbtd_mNCW3oIfH7T-19">
          <mxGeometry x="70" y="110" width="100" height="30" as="geometry" />
        </mxCell>
        <mxCell id="j-6bAbtd_mNCW3oIfH7T-86" style="edgeStyle=orthogonalEdgeStyle;rounded=0;orthogonalLoop=1;jettySize=auto;html=1;exitX=1;exitY=0.5;exitDx=0;exitDy=0;entryX=0;entryY=0.5;entryDx=0;entryDy=0;" edge="1" parent="j-6bAbtd_mNCW3oIfH7T-19" source="j-6bAbtd_mNCW3oIfH7T-22" target="j-6bAbtd_mNCW3oIfH7T-20">
          <mxGeometry relative="1" as="geometry" />
        </mxCell>
        <mxCell id="j-6bAbtd_mNCW3oIfH7T-22" value="GCS COMPUTER" style="whiteSpace=wrap;html=1;spacing=9;labelBackgroundColor=none;fontStyle=1" vertex="1" parent="j-6bAbtd_mNCW3oIfH7T-19">
          <mxGeometry x="70" y="50" width="100" height="30" as="geometry" />
        </mxCell>
        <mxCell id="j-6bAbtd_mNCW3oIfH7T-29" value="COMMUNICATION &amp; NAVIGATION" style="swimlane;startSize=20;horizontal=1;containerType=tree;newEdgeStyle={&quot;edgeStyle&quot;:&quot;elbowEdgeStyle&quot;,&quot;startArrow&quot;:&quot;none&quot;,&quot;endArrow&quot;:&quot;none&quot;};spacing=9;labelBackgroundColor=none;fontStyle=1" vertex="1" parent="1">
          <mxGeometry x="650" y="120" width="550" height="160" as="geometry">
            <mxRectangle x="80" y="40" width="100" height="30" as="alternateBounds" />
          </mxGeometry>
        </mxCell>
        <mxCell id="j-6bAbtd_mNCW3oIfH7T-30" value="MK32 AIR" style="whiteSpace=wrap;html=1;spacing=9;labelBackgroundColor=none;fontStyle=1" vertex="1" parent="j-6bAbtd_mNCW3oIfH7T-29">
          <mxGeometry x="400" y="50" width="100" height="30" as="geometry" />
        </mxCell>
        <mxCell id="j-6bAbtd_mNCW3oIfH7T-31" value="HM30 GND" style="whiteSpace=wrap;html=1;spacing=9;labelBackgroundColor=none;fontStyle=1" vertex="1" parent="j-6bAbtd_mNCW3oIfH7T-29">
          <mxGeometry x="225" y="50" width="100" height="30" as="geometry" />
        </mxCell>
        <mxCell id="j-6bAbtd_mNCW3oIfH7T-32" value="AAT" style="whiteSpace=wrap;html=1;spacing=9;labelBackgroundColor=none;fontStyle=1" vertex="1" parent="j-6bAbtd_mNCW3oIfH7T-29">
          <mxGeometry x="370" y="100" width="100" height="30" as="geometry" />
        </mxCell>
        <mxCell id="j-6bAbtd_mNCW3oIfH7T-33" value="SWITCH COMM" style="whiteSpace=wrap;html=1;spacing=9;labelBackgroundColor=none;fontStyle=1" vertex="1" parent="j-6bAbtd_mNCW3oIfH7T-29">
          <mxGeometry x="220" y="100" width="100" height="30" as="geometry" />
        </mxCell>
        <mxCell id="j-6bAbtd_mNCW3oIfH7T-34" value="DTC GROUND" style="whiteSpace=wrap;html=1;spacing=9;labelBackgroundColor=none;fontStyle=1" vertex="1" parent="j-6bAbtd_mNCW3oIfH7T-29">
          <mxGeometry x="50" y="50" width="100" height="30" as="geometry" />
        </mxCell>
        <mxCell id="j-6bAbtd_mNCW3oIfH7T-39" value="REMOTE CONTROL / PILOT" style="swimlane;startSize=20;horizontal=1;containerType=tree;newEdgeStyle={&quot;edgeStyle&quot;:&quot;elbowEdgeStyle&quot;,&quot;startArrow&quot;:&quot;none&quot;,&quot;endArrow&quot;:&quot;none&quot;};spacing=9;labelBackgroundColor=none;fontStyle=1" vertex="1" parent="1">
          <mxGeometry x="700" y="460" width="550" height="290" as="geometry">
            <mxRectangle x="80" y="40" width="100" height="30" as="alternateBounds" />
          </mxGeometry>
        </mxCell>
        <mxCell id="j-6bAbtd_mNCW3oIfH7T-42" value="MK32 REMOTE" style="whiteSpace=wrap;html=1;spacing=9;labelBackgroundColor=none;fontStyle=1" vertex="1" parent="j-6bAbtd_mNCW3oIfH7T-39">
          <mxGeometry x="60" y="50" width="100" height="30" as="geometry" />
        </mxCell>
        <mxCell id="j-6bAbtd_mNCW3oIfH7T-65" value="POWER TETHERED" style="swimlane;startSize=20;horizontal=1;containerType=tree;newEdgeStyle={&quot;edgeStyle&quot;:&quot;elbowEdgeStyle&quot;,&quot;startArrow&quot;:&quot;none&quot;,&quot;endArrow&quot;:&quot;none&quot;};spacing=9;labelBackgroundColor=none;fontStyle=1" vertex="1" parent="1">
          <mxGeometry x="147.5" y="430" width="355" height="140" as="geometry">
            <mxRectangle x="80" y="40" width="100" height="30" as="alternateBounds" />
          </mxGeometry>
        </mxCell>
        <mxCell id="j-6bAbtd_mNCW3oIfH7T-67" value="TETHERED UNIT (GROUND)" style="whiteSpace=wrap;html=1;spacing=9;labelBackgroundColor=none;fontStyle=1" vertex="1" parent="j-6bAbtd_mNCW3oIfH7T-65">
          <mxGeometry x="190" y="45" width="100" height="60" as="geometry" />
        </mxCell>
        <mxCell id="j-6bAbtd_mNCW3oIfH7T-83" style="edgeStyle=orthogonalEdgeStyle;rounded=0;orthogonalLoop=1;jettySize=auto;html=1;exitX=1;exitY=0.5;exitDx=0;exitDy=0;entryX=0;entryY=0.5;entryDx=0;entryDy=0;" edge="1" parent="j-6bAbtd_mNCW3oIfH7T-65" source="j-6bAbtd_mNCW3oIfH7T-68" target="j-6bAbtd_mNCW3oIfH7T-67">
          <mxGeometry relative="1" as="geometry" />
        </mxCell>
        <mxCell id="j-6bAbtd_mNCW3oIfH7T-68" value="GENSET" style="whiteSpace=wrap;html=1;spacing=9;labelBackgroundColor=none;fontStyle=1" vertex="1" parent="j-6bAbtd_mNCW3oIfH7T-65">
          <mxGeometry x="50" y="60" width="100" height="30" as="geometry" />
        </mxCell>
        <mxCell id="j-6bAbtd_mNCW3oIfH7T-89" style="edgeStyle=orthogonalEdgeStyle;rounded=0;orthogonalLoop=1;jettySize=auto;html=1;exitX=1;exitY=0.5;exitDx=0;exitDy=0;entryX=1;entryY=0.75;entryDx=0;entryDy=0;" edge="1" parent="1" source="j-6bAbtd_mNCW3oIfH7T-20" target="j-6bAbtd_mNCW3oIfH7T-67">
          <mxGeometry relative="1" as="geometry" />
        </mxCell>
        <mxCell id="j-6bAbtd_mNCW3oIfH7T-90" style="edgeStyle=orthogonalEdgeStyle;rounded=0;orthogonalLoop=1;jettySize=auto;html=1;exitX=1;exitY=0.25;exitDx=0;exitDy=0;entryX=0.5;entryY=1;entryDx=0;entryDy=0;" edge="1" parent="1" source="j-6bAbtd_mNCW3oIfH7T-67" target="j-6bAbtd_mNCW3oIfH7T-17">
          <mxGeometry relative="1" as="geometry" />
        </mxCell>
        <mxCell id="j-6bAbtd_mNCW3oIfH7T-91" style="edgeStyle=orthogonalEdgeStyle;rounded=0;orthogonalLoop=1;jettySize=auto;html=1;exitX=1;exitY=0.5;exitDx=0;exitDy=0;entryX=0.5;entryY=1;entryDx=0;entryDy=0;" edge="1" parent="1" source="j-6bAbtd_mNCW3oIfH7T-67" target="j-6bAbtd_mNCW3oIfH7T-18">
          <mxGeometry relative="1" as="geometry" />
        </mxCell>
      </root>
    </mxGraphModel>
  </diagram>
</mxfile>
